<svg width="103" height="126" viewBox="0 0 103 126" fill="none" xmlns="http://www.w3.org/2000/svg">
<g clip-path="url(#clip0_389_3)">
<path d="M15.2156 30.9542C23.619 30.9542 30.4313 24.1535 30.4313 15.7644C30.4313 7.37539 23.619 0.574707 15.2156 0.574707C6.81228 0.574707 0 7.37539 0 15.7644C0 24.1535 6.81228 30.9542 15.2156 30.9542Z" fill="#EB6E08"/>
<path fill-rule="evenodd" clip-rule="evenodd" d="M78.9243 1.23695C78.9243 1.23695 95.9937 29.058 78.3499 47.6869C78.3499 47.6869 70.7679 58.6347 45.3197 58.2961L27.5 57.2422L51.0639 125.964H91.131L39.2881 67.7581L57.5759 67.4034C57.5759 67.4034 109.944 61.4502 91.5069 7.11324L88.7923 0.677734L78.9243 1.23695Z" fill="white"/>
<path d="M53.5049 0C71.6715 37.5648 38.9649 49.5827 22.5801 53.1572L23.2559 53.9854L23.2109 53.9834L32.4883 81.041L15.4492 66.6113L16.335 74.1094L22.4043 126H0.572266V39.29H23.9844C55.8793 34.8867 38.5752 1.35449 38.5752 1.35449L53.5049 0ZM102.189 125.964H95.1484L77.9775 106.686L81.2393 68.3115L59.3896 85.8164L52.5566 78.1455L60.6729 69.9219C62.1277 69.6322 64.0847 69.182 66.3438 68.4941C71.1763 67.0227 77.51 64.4454 83.2822 60.0146C87.56 56.731 91.5409 52.4148 94.3506 46.793L102.189 125.964Z" fill="white"/>
</g>
<defs>
<clipPath id="clip0_389_3">
<rect width="102.189" height="126" fill="white"/>
</clipPath>
</defs>
</svg>
