<svg width="433" height="526" viewBox="0 0 433 526" fill="none" xmlns="http://www.w3.org/2000/svg">
<g clip-path="url(#clip0_320_194)">
<path d="M64.3342 129.222C99.865 129.222 128.668 100.832 128.668 65.8106C128.668 30.7896 99.865 2.39946 64.3342 2.39946C28.8034 2.39946 0 30.7896 0 65.8106C0 100.832 28.8034 129.222 64.3342 129.222Z" fill="#EB6E08"/>
<path d="M95.4701 221.909L200.044 348.412L378.637 169.748L396.246 168.552L432.071 525.849H322.775L343.491 285.173L204.911 394.794L65.3206 278.074L69.0672 309.378L94.7271 525.999H2.41986V164.022H101.41C236.267 145.64 163.1 5.65554 163.1 5.65554L226.225 0C303.038 156.82 164.748 206.987 95.4701 221.909Z" fill="#C6C7C9"/>
<path fill-rule="evenodd" clip-rule="evenodd" d="M333.704 5.16322C333.704 5.16322 405.876 121.305 331.276 199.073C331.276 199.073 299.218 244.776 191.619 243.362L111.468 240.969L215.906 525.849H385.316L166.116 282.863L243.44 281.382C243.44 281.382 464.86 256.53 386.906 29.6944L375.428 2.8287L333.704 5.16322Z" fill="#264091"/>
</g>
<defs>
<clipPath id="clip0_320_194">
<rect width="432.071" height="526" fill="white"/>
</clipPath>
</defs>
</svg>
